<?xml version="1.0" encoding="utf-8"?>
<!-- Generator: Adobe Illustrator 16.0.0, SVG Export Plug-In . SVG Version: 6.00 Build 0)  -->
<!DOCTYPE svg PUBLIC "-//W3C//DTD SVG 1.1//EN" "http://www.w3.org/Graphics/SVG/1.1/DTD/svg11.dtd">
<svg version="1.1" id="图层_1" xmlns="http://www.w3.org/2000/svg" xmlns:xlink="http://www.w3.org/1999/xlink" x="0px" y="0px"
	 width="960px" height="560px" viewBox="0 0 960 560" enable-background="new 0 0 960 560" xml:space="preserve">
<g>
	<g>
		<g>
			
				<linearGradient id="SVGID_1_" gradientUnits="userSpaceOnUse" x1="736.1689" y1="46.1816" x2="634.331" y2="26.082" gradientTransform="matrix(0.6113 -0.7914 -0.7914 -0.6113 -349.3604 632.0596)">
				<stop  offset="0.0182" style="stop-color:#8CD1FA"/>
				<stop  offset="0.192" style="stop-color:#88CFF8"/>
				<stop  offset="0.3666" style="stop-color:#7CCAF3"/>
				<stop  offset="0.5416" style="stop-color:#68C0EA"/>
				<stop  offset="0.7169" style="stop-color:#4CB4DD"/>
				<stop  offset="0.8909" style="stop-color:#28A3CD"/>
				<stop  offset="1" style="stop-color:#0D97C1"/>
			</linearGradient>
			<path fill="url(#SVGID_1_)" d="M63.827,61.182c-4.61,11.659-15.718,18.868-27.556,19.103l-1.027,6.002l-8.769-12.395
				l12.391-8.771l-0.964,5.632c7.5-0.809,14.311-5.668,17.22-13.176c0-0.003,0.003-0.008,0.005-0.017
				c4.136-10.7-1.198-22.771-11.898-26.919c-0.046-0.017-0.092-0.028-0.139-0.044l5.337-3.782l-4.059-5.735
				c0.759,0.228,1.515,0.481,2.266,0.773c15.552,6.027,23.3,23.581,17.275,39.13C63.883,61.05,63.854,61.115,63.827,61.182z"/>
		</g>
	</g>
</g>
</svg>
