<?xml version="1.0" encoding="utf-8"?>
<!DOCTYPE svg PUBLIC "-//W3C//DTD SVG 1.1//EN" "http://www.w3.org/Graphics/SVG/1.1/DTD/svg11.dtd">
<svg version="1.1" id="图形" xmlns="http://www.w3.org/2000/svg" xmlns:xlink="http://www.w3.org/1999/xlink" x="0px" y="0px" width="1024px" height="1024px" viewBox="0 0 1024 1024" enable-background="new 0 0 1024 1024" xml:space="preserve">
  <path fill="#999999" d="M714.045249 747.168436 280.957158 747.168436c-12.264827 0-22.209724-9.943466-22.209724-22.208814l0-843.932901c0-12.264325 9.944897-22.208814 22.209724-22.208814l433.089114 0c12.264827 0 22.209724 9.94449 22.209724 22.208814L736.255997 724.959621C736.255997 737.223946 726.3111 747.168436 714.045249 747.168436zM497.501715-74.555651c-21.461657 0-38.865739 17.405415-38.865739 38.864146 0 21.460778 17.405105 38.865169 38.865739 38.865169s38.865739-17.405415 38.865739-38.865169C536.367454-57.150236 518.963372-74.555651 497.501715-74.555651zM680.731174 58.697235 314.272257 58.697235 314.272257 680.541993l366.458918 0L680.731174 58.697235z" transform="translate(0, 812) scale(1, -1)"/>
</svg>
