<?xml version="1.0" encoding="utf-8"?>
<!DOCTYPE svg PUBLIC "-//W3C//DTD SVG 1.1//EN" "http://www.w3.org/Graphics/SVG/1.1/DTD/svg11.dtd">
<svg version="1.1" id="图形" xmlns="http://www.w3.org/2000/svg" xmlns:xlink="http://www.w3.org/1999/xlink" x="0px" y="0px" width="1024px" height="1024px" viewBox="0 0 1024 1024" enable-background="new 0 0 1024 1024" xml:space="preserve">
  <path fill="#ea8010" d="M511.468371 807.906775c-280.459811 0-507.822181-227.355101-507.822181-507.802398 0-280.417621 227.363394-507.802398 507.822181-507.802398 280.461858 0 507.824228 227.384777 507.824228 507.802398C1019.293622 580.551674 791.931252 807.906775 511.468371 807.906775zM200.262065 611.301002c35.640145 35.606962 76.405218 64.434521 121.336341 85.990466-32.698019-43.541679-59.97434-98.05934-79.677885-160.211888l-101.434266 0C157.546491 563.757173 177.516106 588.589744 200.262065 611.301002zM105.078409 469.372525l119.020504 0c-9.058678-42.776246-14.810917-88.23867-16.663178-135.414109L72.645437 333.958416C76.150404 380.736812 87.060319 426.09486 105.078409 469.372525zM72.645437 266.249315l134.790299 0c1.918778-47.175439 7.6045-92.6307 16.663178-135.413086L105.078409 130.836229C86.993801 174.113895 76.150404 219.472965 72.645437 266.249315zM200.262065-11.058478c-22.746982 22.678512-42.715574 47.537689-59.775811 74.187653l101.434266 0c19.703545-62.151525 46.913348-116.635417 79.677885-160.211888C276.568018-75.527792 235.836716-46.698187 200.262065-11.058478zM477.614991-135.035094c-15.43823 4.433986-30.747518 12.033058-45.690447 22.61302-28.103186 19.838837-55.045896 50.383504-77.825625 88.273463-15.769795 26.244734-29.358834 55.472406-40.733349 87.278809l164.249421 0L477.614991-135.035094zM477.614991 130.836229 293.49522 130.836229c-10.215061 43.341111-16.299889 88.701205-18.249367 135.413086l202.369139 0L477.614991 130.836229zM477.614991 333.958416 275.245852 333.958416c1.950502 46.714951 8.100824 92.072999 18.249367 135.414109l184.118748 0L477.613968 333.958416zM477.614991 537.07958 313.364547 537.07958c11.373491 31.835056 24.963554 60.996213 40.733349 87.278809 22.780753 37.988196 49.722439 68.499094 77.825625 88.273463 15.009447 10.578939 30.253241 18.145266 45.690447 22.61302L477.613968 537.07958zM950.295398 333.958416 815.503053 333.958416c-1.917754 47.175439-7.603477 92.63684-16.662154 135.414109l119.020504 0C935.94601 426.09486 946.79043 380.736812 950.295398 333.958416zM822.677746 611.301002c22.746982-22.711258 42.715574-47.543829 59.775811-74.221422l-101.43222 0c-19.704568 62.152549-46.915395 116.67021-79.676862 160.211888C746.37077 675.735523 787.104119 646.907964 822.677746 611.301002zM545.325843 735.243849c15.440277-4.466732 30.745471-12.034081 45.689424-22.61302 28.10114-19.835767 55.047942-50.354851 77.826648-88.273463 15.770818-26.282596 29.357811-55.443753 40.731302-87.278809l-164.247374 0L545.325843 735.243849zM545.325843 469.372525 729.445615 469.372525c10.148543-43.341111 16.297842-88.699158 18.248344-135.414109L545.325843 333.958416 545.325843 469.372525zM545.325843 266.249315l202.368116 0c-1.950502-46.711881-8.0998-92.071975-18.248344-135.413086L545.325843 130.836229 545.325843 266.249315zM591.081785-112.422074c-15.01047-10.579963-30.250171-18.179035-45.690447-22.61302l-0.064471 198.164269 164.247374 0c-11.373491-31.806403-24.960484-61.034075-40.664785-87.278809C646.128704-62.102015 619.182924-92.649751 591.081785-112.422074zM822.677746-11.058478c-35.638099-35.639708-76.405218-64.469314-121.333271-86.024236 32.695973 43.576471 59.972294 98.060363 79.676862 160.211888l101.43222 0C865.39332 36.479211 845.423705 11.620034 822.677746-11.058478zM917.860379 130.836229 798.840898 130.836229c9.059701 42.783409 14.811941 88.23867 16.662154 135.413086l134.792345 0C946.79043 219.472965 935.880516 174.113895 917.860379 130.836229z" transform="translate(0, 812) scale(1, -1)"/>
</svg>
